<svg width="202" height="44" viewBox="0 0 202 44" fill="none" xmlns="http://www.w3.org/2000/svg">
<path d="M27.9918 14.006C26.5405 14.0698 25.2389 14.6433 24.111 15.6995L23.994 15.813L23.8723 15.695C22.6626 14.5761 21.2746 14 19.7344 14C16.5772 14 14 16.5603 14 19.7172C14 22.8046 15.1273 24.2688 20.1824 28.263L22.8704 30.3607C23.5345 30.8783 24.4655 30.8783 25.1296 30.3607L27.4937 28.5182L28.4269 27.7784C32.9647 24.144 34 22.676 34 19.7172C34 16.5603 31.4228 14 28.2656 14L27.9918 14.006ZM28.2656 15.8C30.4314 15.8 32.2 17.557 32.2 19.7172L32.1951 20.0108C32.1192 22.1674 31.1332 23.352 26.686 26.8631L24.0231 28.941C24.0095 28.9515 23.9905 28.9515 23.9769 28.941L21.6128 27.0984L20.739 26.4066C16.5968 23.0977 15.8 21.9668 15.8 19.7172C15.8 17.557 17.5686 15.8 19.7344 15.8C21.0673 15.8 22.2408 16.4176 23.3038 17.7152C23.6662 18.1577 24.3441 18.1543 24.702 17.7081C25.7389 16.4156 26.9087 15.8 28.2656 15.8Z" fill="#99A2AD"/>
<path d="M44.71 27.2393C46.7812 27.2393 48.2783 25.79 48.2783 23.8076V23.7939C48.2783 21.9072 46.9316 20.5127 45.0518 20.5127C43.7051 20.5127 42.8164 21.2168 42.4541 22.0098H42.3242C42.3516 19.9385 43.0352 18.1953 44.7578 18.1953C45.6875 18.1953 46.3301 18.6738 46.6035 19.4258L46.6309 19.4941H48.1484L48.1348 19.4121C47.8066 17.9219 46.5078 16.8965 44.7646 16.8965C42.3242 16.8965 40.8682 18.8652 40.8682 22.2012V22.2148C40.8682 25.8447 42.7275 27.2393 44.71 27.2393ZM42.625 23.8076V23.8008C42.625 22.6113 43.5273 21.75 44.71 21.75C45.9062 21.75 46.7676 22.625 46.7676 23.835V23.8486C46.7676 25.0312 45.8516 25.9541 44.6963 25.9541C43.5342 25.9541 42.625 25.0107 42.625 23.8076ZM53.4905 27.2393C55.5687 27.2393 57.0315 25.8447 57.0315 23.8213V23.8076C57.0315 21.9141 55.7054 20.5332 53.8528 20.5332C52.9437 20.5332 52.1712 20.916 51.7542 21.5791H51.638L51.9388 18.4346H56.471V17.1357H50.7356L50.2435 22.8643H51.5628C51.679 22.6387 51.8362 22.4473 52.014 22.29C52.4036 21.9346 52.9163 21.7568 53.5179 21.7568C54.7073 21.7568 55.5687 22.6182 55.5687 23.835V23.8486C55.5687 25.0859 54.721 25.9541 53.5042 25.9541C52.4241 25.9541 51.638 25.2637 51.5081 24.3955L51.5013 24.3408H50.0657L50.0726 24.4297C50.2093 26.0293 51.5491 27.2393 53.4905 27.2393Z" fill="#818C99"/>
<path d="M98.8951 14H89.1049C87.953 14 87.3657 14.1134 86.7545 14.4403C86.1903 14.742 85.742 15.1903 85.4403 15.7545C85.1134 16.3657 85 16.953 85 18.1049V23.8951C85 25.047 85.1134 25.6343 85.4403 26.2455C85.742 26.8097 86.1903 27.258 86.7545 27.5597L86.8954 27.6314C87.4124 27.8807 87.9447 27.9827 88.8488 27.9979L89.1 28V30.2149C89.1 30.6467 89.2693 31.0614 89.5715 31.3698L89.6882 31.478C90.3309 32.0196 91.2923 31.9937 91.9049 31.3933L95.366 28H98.8951C100.047 28 100.634 27.8866 101.245 27.5597C101.81 27.258 102.258 26.8097 102.56 26.2455C102.887 25.6343 103 25.047 103 23.8951V18.1049C103 16.953 102.887 16.3657 102.56 15.7545C102.258 15.1903 101.81 14.742 101.245 14.4403C100.634 14.1134 100.047 14 98.8951 14ZM88.9117 15.8011L98.8951 15.8C99.7753 15.8 100.082 15.8592 100.397 16.0275C100.647 16.1616 100.838 16.3528 100.972 16.6034C101.141 16.9182 101.2 17.2247 101.2 18.1049V23.8951L101.196 24.2628C101.179 24.8698 101.115 25.1303 100.972 25.3966C100.838 25.6472 100.647 25.8384 100.397 25.9725C100.082 26.1408 99.7753 26.2 98.8951 26.2H95L94.8832 26.2076C94.6907 26.2328 94.5103 26.3198 94.3701 26.4572L90.9 29.857V27.1C90.9 26.6029 90.4971 26.2 90 26.2H89.1049L88.7372 26.1956C88.1302 26.1792 87.8697 26.1149 87.6034 25.9725C87.3528 25.8384 87.1616 25.6472 87.0275 25.3966C86.8592 25.0818 86.8 24.7753 86.8 23.8951V18.1049L86.8044 17.7372C86.8208 17.1302 86.8851 16.8697 87.0275 16.6034C87.1616 16.3528 87.3528 16.1616 87.6034 16.0275C87.894 15.8721 88.1775 15.8098 88.9117 15.8011Z" fill="#99A2AD"/>
<path d="M114.71 27.2393C116.781 27.2393 118.278 25.79 118.278 23.8076V23.7939C118.278 21.9072 116.932 20.5127 115.052 20.5127C113.705 20.5127 112.816 21.2168 112.454 22.0098H112.324C112.352 19.9385 113.035 18.1953 114.758 18.1953C115.688 18.1953 116.33 18.6738 116.604 19.4258L116.631 19.4941H118.148L118.135 19.4121C117.807 17.9219 116.508 16.8965 114.765 16.8965C112.324 16.8965 110.868 18.8652 110.868 22.2012V22.2148C110.868 25.8447 112.728 27.2393 114.71 27.2393ZM112.625 23.8076V23.8008C112.625 22.6113 113.527 21.75 114.71 21.75C115.906 21.75 116.768 22.625 116.768 23.835V23.8486C116.768 25.0312 115.852 25.9541 114.696 25.9541C113.534 25.9541 112.625 25.0107 112.625 23.8076ZM123.491 27.2393C125.569 27.2393 127.032 25.8447 127.032 23.8213V23.8076C127.032 21.9141 125.705 20.5332 123.853 20.5332C122.944 20.5332 122.171 20.916 121.754 21.5791H121.638L121.939 18.4346H126.471V17.1357H120.736L120.243 22.8643H121.563C121.679 22.6387 121.836 22.4473 122.014 22.29C122.404 21.9346 122.916 21.7568 123.518 21.7568C124.707 21.7568 125.569 22.6182 125.569 23.835V23.8486C125.569 25.0859 124.721 25.9541 123.504 25.9541C122.424 25.9541 121.638 25.2637 121.508 24.3955L121.501 24.3408H120.066L120.073 24.4297C120.209 26.0293 121.549 27.2393 123.491 27.2393Z" fill="#818C99"/>
<path d="M163.996 13.7254C162.881 13.8041 162 14.7342 162 15.87L161.999 17.9871L161.979 17.992C157.446 18.931 154.1 22.9471 154.1 27.6854C154.1 28.0297 154.118 28.3728 154.152 28.713C154.235 29.5242 155.268 29.8157 155.763 29.1677L155.95 28.9312C157.409 27.1447 159.487 25.9729 161.785 25.6659L161.999 25.6401L162 28.1344C162 28.615 162.161 29.082 162.458 29.4604C163.19 30.395 164.542 30.5588 165.476 29.8263L173.3 23.6942C173.436 23.5875 173.559 23.4646 173.666 23.3284C174.398 22.3938 174.235 21.0424 173.3 20.3099L165.476 14.1778C165.098 13.8812 164.631 13.72 164.15 13.72L163.996 13.7254ZM164.15 15.52C164.228 15.52 164.304 15.5462 164.366 15.5945L172.19 21.7266C172.342 21.8458 172.368 22.0658 172.249 22.218C172.232 22.2402 172.212 22.2602 172.19 22.2775L164.366 28.4096C164.214 28.5289 163.994 28.5022 163.875 28.3501C163.826 28.2884 163.8 28.2124 163.8 28.1341L163.799 24.6868C163.799 24.1841 163.387 23.7789 162.884 23.7872L162.651 23.791L162.309 23.8076C160.035 23.9527 157.912 24.7947 156.19 26.1734L156.016 26.3171L156.04 26.1817C156.683 22.7663 159.475 20.0764 163.008 19.6455C163.46 19.5904 163.799 19.2071 163.799 18.7523L163.8 15.8702C163.8 15.6767 163.957 15.52 164.15 15.52Z" fill="#99A2AD"/>
<path d="M185.592 27H187.068V25.0381H188.429V23.7393H187.068V17.1357H184.888C183.527 19.1797 182.078 21.5107 180.779 23.7393V25.0381H185.592V27ZM182.249 23.7666V23.6709C183.261 21.9414 184.464 20.0205 185.523 18.4277H185.612V23.7666H182.249Z" fill="#818C99"/>
</svg>
