<svg width="84" height="44" viewBox="0 0 84 44" fill="none" xmlns="http://www.w3.org/2000/svg">
<path d="M26 17.5C30.2 17.5 33 21.5 33 22.5C33 23.5 30.2 27.5 26 27.5C21.8 27.5 19 23.5 19 22.5C19 21.5 21.8 17.5 26 17.5ZM26 19C24.067 19 22.5 20.567 22.5 22.5C22.5 24.433 24.067 26 26 26C27.933 26 29.5 24.433 29.5 22.5C29.5 20.567 27.933 19 26 19ZM26 21C26.8284 21 27.5 21.6716 27.5 22.5C27.5 23.3284 26.8284 24 26 24C25.1716 24 24.5 23.3284 24.5 22.5C24.5 21.6716 25.1716 21 26 21Z" fill="#B8C1CC"/>
<path d="M42.1505 27.5H43.4425L47.8311 18.7773V17.6357H41.3028V18.7363H46.5802V18.832L42.1505 27.5ZM47.5541 30.0088H48.4359L49.5092 26.1191H48.1488L47.5541 30.0088ZM51.5769 27.5H57.9616V26.3926H53.2858V26.2832L55.528 23.9658C57.3122 22.127 57.7976 21.3066 57.7976 20.1787V20.165C57.7976 18.5723 56.4782 17.4033 54.7556 17.4033C52.8688 17.4033 51.5153 18.6611 51.5085 20.4111L51.5222 20.418L52.6979 20.4248L52.7048 20.4111C52.7048 19.249 53.4909 18.4766 54.6735 18.4766C55.8356 18.4766 56.5397 19.2559 56.5397 20.2949V20.3086C56.5397 21.1699 56.1706 21.6826 54.9128 23.043L51.5769 26.6523V27.5ZM60.0293 27.5H61.2598V24.0547L62.4424 22.749L66.0039 27.5H67.5967L63.29 21.8945L67.2344 17.6357H65.6895L61.3691 22.4277H61.2598V17.6357H60.0293V27.5Z" fill="#99A2AD"/>
</svg>
